<svg width="26" height="26" viewBox="0 0 26 26" fill="none" xmlns="http://www.w3.org/2000/svg">
<path d="M5.49996 10.5V14.25C5.49995 14.4444 5.45458 14.6362 5.36746 14.81L3.77496 18H22.23L20.635 14.81C20.547 14.6364 20.5007 14.4446 20.5 14.25V10.5C20.5 8.51088 19.7098 6.60322 18.3033 5.1967C16.8967 3.79018 14.9891 3 13 3C11.0108 3 9.10318 3.79018 7.69666 5.1967C6.29013 6.60322 5.49996 8.51088 5.49996 10.5ZM7.99996 20.5H1.74996C1.5368 20.5 1.32718 20.4455 1.14103 20.3416C0.954874 20.2378 0.798369 20.0881 0.686387 19.9067C0.574404 19.7253 0.510665 19.5183 0.501226 19.3054C0.491787 19.0924 0.536962 18.8806 0.632458 18.69L2.99996 13.955V10.5C2.99996 7.84784 4.05353 5.3043 5.92889 3.42893C7.80425 1.55357 10.3478 0.5 13 0.5C15.6521 0.5 18.1957 1.55357 20.071 3.42893C21.9464 5.3043 23 7.84784 23 10.5V13.955L25.3675 18.69C25.463 18.8806 25.5081 19.0924 25.4987 19.3054C25.4893 19.5183 25.4255 19.7253 25.3135 19.9067C25.2015 20.0881 25.045 20.2378 24.8589 20.3416C24.6727 20.4455 24.4631 20.5 24.25 20.5H18C18 21.8261 17.4732 23.0979 16.5355 24.0355C15.5978 24.9732 14.326 25.5 13 25.5C11.6739 25.5 10.4021 24.9732 9.46442 24.0355C8.52674 23.0979 7.99996 21.8261 7.99996 20.5ZM15.5 20.5H10.5C10.5 21.163 10.7634 21.7989 11.2322 22.2678C11.701 22.7366 12.3369 23 13 23C13.663 23 14.2989 22.7366 14.7677 22.2678C15.2366 21.7989 15.5 21.163 15.5 20.5Z" fill="white"/>
</svg>
